<?xml version="1.0" encoding="utf-8"?>
<!-- Generator: Adobe Illustrator 25.2.1, SVG Export Plug-In . SVG Version: 6.00 Build 0)  -->
<svg version="1.1" id="Capa_1" xmlns="http://www.w3.org/2000/svg" xmlns:xlink="http://www.w3.org/1999/xlink" x="0px" y="0px"
	 viewBox="0 0 200 85.2" style="enable-background:new 0 0 200 85.2;" xml:space="preserve">
<style type="text/css">
	.st0{fill:#1B1323;}
	.st1{fill:#FCF9F7;}
	.st2{fill:#AA8FFF;}
</style>
<path class="st0" d="M184.8,85.2h-170C6.4,85.2-0.4,78.4-0.4,70V15.2C-0.4,6.8,6.4,0,14.8,0h170c8.4,0,15.2,6.8,15.2,15.2V70
	C200,78.4,193.2,85.2,184.8,85.2"/>
<polygon class="st1" points="28.7,54 30,64.6 75.5,64.6 74,52.5 52.8,52.5 52.6,50.9 72.2,37.3 70.9,26.7 25.3,26.7 26.8,38.8 
	48.1,38.8 48.3,40.3 "/>
<path class="st1" d="M174.1,40.3c-1.1-8.5-7.7-13.7-16.8-13.6H127l4.7,37.9h13.6l-0.9-7.6h14.4C170.1,57,175.3,49.9,174.1,40.3
	 M157.3,46.4l-14.2,0l-1.1-9.1l14.3,0c3.4,0,5.1,1.9,5.4,4.5C161.8,43.5,161,46.4,157.3,46.4"/>
<polygon class="st2" points="76.1,26.7 80.8,64.6 126.3,64.6 121.7,26.7 "/>
<path class="st1" d="M80.6,21.7c3,2.7,7.3,2.7,9.6,0c2.3-2.7,1.8-7-1.2-9.6c-3-2.7-7.3-2.7-9.6,0C77,14.7,77.6,19,80.6,21.7"/>
</svg>
