<?xml version="1.0" encoding="utf-8"?>
<!-- Generator: Adobe Illustrator 25.2.1, SVG Export Plug-In . SVG Version: 6.00 Build 0)  -->
<svg version="1.1" xmlns="http://www.w3.org/2000/svg" xmlns:xlink="http://www.w3.org/1999/xlink" x="0px" y="0px"
	 viewBox="0 0 100 100" style="enable-background:new 0 0 100 100;" xml:space="preserve">
<style type="text/css">
	.st0{display:none;}
	.st1{display:inline;}
	.st2{fill:#AA8FFF;}
	.st3{fill:#1B1323;}
</style>
<g id="Capa_1" class="st0">
	<g class="st1">
		<path class="st2" d="M30.5,66.9l1.2,0L71.4,66c3.7-0.1,6.9-2.6,7.9-6.2l0-0.1L82,41.5l0-0.1c0.3-2.5,0.3-6.1-2.1-8.3l1.7-1.5
			l0.1-0.1c2-2,2.1-5.4,0.1-7.5c-1-1-2.3-1.6-3.7-1.6c-1.4,0-2.7,0.5-3.7,1.5l-6.3,6.3H32.8c-0.9,0-1.6,0.7-1.6,1.6
			c0,0.9,0.7,1.6,1.6,1.6h32L52.1,46.3l-1.2-1.6l-1.1-1.3c-1.8-2.1-4.9-2.5-7.1-0.9c-1.2,0.9-1.9,2.2-2.1,3.7
			c-0.2,1.5,0.3,3,1.3,4.1l5.9,6.9c0.8,0.9,1.7,1.5,2.8,1.9c0.5,0.1,0.9,0.2,1.4,0.2c1.4,0,2.7-0.5,3.7-1.5L73,40
			c0.6-0.6,0.6-1.7,0-2.3c-0.6-0.6-1.7-0.6-2.3,0L53.2,55.4c-0.4,0.4-0.8,0.6-1.3,0.6c-0.1,0-0.2,0-0.4-0.1
			c-0.5-0.1-0.9-0.4-1.3-0.9l-5.9-6.9c-0.4-0.4-0.6-1-0.5-1.6c0.1-0.6,0.4-1.1,0.8-1.4c0.8-0.6,1.9-0.4,2.6,0.4l1,1.2l3.4,4.7
			l25.1-25c0.4-0.4,0.9-0.6,1.4-0.6c0.5,0,1,0.2,1.3,0.6c0.8,0.8,0.8,2.1,0,2.9l-1.8,1.6c-0.7,0.6-1.1,1.5-1.1,2.4
			c0,0.9,0.4,1.7,1.1,2.3c1.1,0.9,1.4,2.7,1.1,5.6l-2.7,18c-0.6,2.2-2.5,3.7-4.8,3.7l-39.6,0.9l-1.2,0c-1.4,0-2.6,0.6-3.6,1.6
			c-0.9,1-1.4,2.4-1.4,3.8c0,1.5,0.7,3,1.9,4.2c1.3,1.2,3.1,2.1,5.1,2.4c-0.4,0.8-0.6,1.6-0.6,2.4c0,3.1,2.6,5.6,5.7,5.6
			c0,0,0,0,0,0h0c3.1,0,5.6-2.6,5.6-5.7c0-0.9-0.2-1.7-0.6-2.4l28.6-0.6c-0.3,0.7-0.5,1.5-0.5,2.3c0,1.5,0.6,2.9,1.7,4
			c1.1,1.1,2.5,1.6,4,1.6c0,0,0,0,0,0h0c3.1,0,5.7-2.6,5.6-5.7c0-3.1-2.6-5.6-5.7-5.6c0,0,0,0,0,0c-0.1,0-0.2,0-0.3,0l-37.9,0.8
			c-0.2,0-0.4,0-0.6,0c0,0,0,0,0,0c-0.2,0-0.4,0-0.6,0.1l-2.5,0.1c-1.9,0-3.6-0.5-4.7-1.6c-0.4-0.4-0.9-1-0.9-1.9l0-0.1
			c0-0.5,0.1-1,0.5-1.4C29.6,67.1,30,66.9,30.5,66.9z M40,77.8c0,1.3-1.1,2.4-2.4,2.4c0,0,0,0,0,0c-1.3,0-2.4-1.1-2.4-2.4
			c0-0.6,0.2-1.2,0.7-1.7c0.3-0.3,0.7-0.6,1.2-0.6l0.9,0C39.1,75.7,40,76.7,40,77.8z M78.8,77.1c0,1.3-1.1,2.4-2.4,2.4c0,0,0,0,0,0
			c-0.6,0-1.2-0.2-1.7-0.7c-0.5-0.4-0.7-1-0.7-1.7c0-0.6,0.2-1.2,0.7-1.7c0.4-0.5,1-0.7,1.7-0.7c0,0,0,0,0,0
			C77.8,74.7,78.8,75.8,78.8,77.1z"/>
		<path class="st2" d="M30.1,61.7c0.1,0,0.2,0,0.4,0c0.9-0.2,1.4-1.1,1.2-2l-7.5-32.4l0-0.1c0-0.1-0.1-0.3-0.1-0.4
			c-1.9-5.6-7.9-8.7-13.6-7.1c-0.9,0.2-1.4,1.1-1.1,2c0.2,0.9,1.1,1.4,2,1.1c4-1.1,8.3,1.1,9.6,5c0,0.1,0.1,0.2,0.1,0.2l7.5,32.4
			C28.7,61.2,29.4,61.7,30.1,61.7z"/>
	</g>
</g>
<g id="Capa_2">
	<g>
		<polygon class="st3" points="8.2,57.7 8.9,64 35.7,64 34.8,56.8 22.4,56.8 22.2,56 33.7,47.9 33,41.7 6.2,41.7 7.1,48.8 
			19.6,48.8 19.7,49.7 		"/>
		<path class="st3" d="M93.7,49.7c-0.6-5-4.6-8-9.9-8l-17.8,0L68.7,64h8l-0.6-4.5h8.5C91.3,59.5,94.4,55.4,93.7,49.7 M83.8,53.3
			l-8.4,0l-0.7-5.4l8.4,0c2,0,3,1.1,3.2,2.7C86.5,51.6,86,53.3,83.8,53.3"/>
		<polygon class="st2" points="36.1,41.7 38.8,64 65.6,64 62.9,41.7 		"/>
		<path class="st3" d="M38.7,38.7c1.8,1.6,4.3,1.6,5.7,0c1.4-1.6,1.1-4.1-0.7-5.6c-1.8-1.6-4.3-1.6-5.6,0
			C36.6,34.6,36.9,37.2,38.7,38.7"/>
	</g>
</g>
<g id="Capa_3" class="st0">
	<g class="st1">
		<path class="st2" d="M46.9,80.8v-6.9c-14-1-20.3-6.5-22-17h8.4c1.4,7.6,7.7,10.4,18.7,10.4c10.9,0,14.7-2.7,14.7-7.2
			c0-5.4-4.6-6-18.6-6.9c-14-0.9-21-3.9-21-12.8c0-7.6,6.1-13.3,19.8-13.8v-7.4h7.5v7.6c11.5,1.1,18,6.1,19.8,15.1H66
			c-1.3-6.5-7.5-8.8-17.2-8.8c-10.2,0-13.7,2.7-13.7,7c0,4.2,3.5,5.7,16.6,6.4c16,0.9,22.9,3.8,23,13c0.1,8.1-5.9,13.8-20.1,14.4
			v6.8H46.9z"/>
	</g>
</g>
<g id="Capa_4" class="st0">
	<g class="st1">
		<path class="st2" d="M75.5,38.3C75.5,38.3,75.5,38.3,75.5,38.3c0-0.1,0-0.1,0-0.2c0,0,0,0,0-0.1c0-0.1,0-0.1-0.1-0.2
			c0,0,0,0,0-0.1c0,0,0,0,0-0.1L72,32.3c-0.2-0.3-0.6-0.5-0.9-0.5h-1.9l0.8-3.3c0.1-0.3,0-0.6-0.1-0.8c-0.2-0.3-0.4-0.4-0.7-0.5
			l-9.9-2.3c-0.9-4.3-4.8-7.5-9.2-7.5c-3,0-5.8,1.4-7.6,3.9c-0.1,0.1-0.1,0.1-0.1,0.2l-12.4,1.5c-0.6,0.1-1,0.6-1,1.2l0.9,7.6H29
			c-0.4,0-0.7,0.2-0.9,0.5l-3.3,5.5c0,0,0,0.1,0,0.1c0,0,0,0,0,0c0,0.1,0,0.1-0.1,0.2c0,0,0,0,0,0c0,0.1,0,0.1,0,0.2c0,0,0,0,0,0
			l-2.2,43.2c0,0.3,0.1,0.6,0.3,0.8c0.2,0.2,0.5,0.3,0.8,0.3h53.2c0.3,0,0.6-0.1,0.8-0.3c0.2-0.2,0.3-0.5,0.3-0.8L75.5,38.3z
			 M39.6,34.2l15.7-3.8l1.6,6.9H40.3L39.6,34.2z M70.4,33.9l2,3.3h-4.5l0.8-3.3H70.4z M65.6,37.3h-6.4l-2-8.5
			c-0.1-0.3-0.2-0.5-0.5-0.7c-0.3-0.2-0.6-0.2-0.8-0.1L54,28.4l0.6-2.5l12.9,3L65.6,37.3z M50,19.5c3,0,5.7,1.9,6.7,4.7L54,23.6
			c-0.3-0.1-0.6,0-0.8,0.1c-0.2,0.2-0.4,0.4-0.5,0.7L51.6,29l-1.1,0.3l-0.9-7.6c0-0.3-0.2-0.6-0.4-0.7c-0.2-0.2-0.5-0.3-0.8-0.2
			L45.6,21C46.9,20.1,48.4,19.5,50,19.5z M47.5,23l0.8,6.8L38,32.3c-0.6,0.1-1,0.7-0.8,1.3l0.9,3.6h-5.4L31.2,25L47.5,23z
			 M29.6,33.9H30l0.4,3.3h-2.8L29.6,33.9z M24.6,80.5l2.1-41h46.6l2.1,41H24.6z"/>
		<path class="st2" d="M58.3,41.7c-1.8,0-3.3,1.5-3.3,3.3c0,1.4,0.9,2.7,2.2,3.1v4.1c0,4-3.2,7.2-7.2,7.2s-7.2-3.2-7.2-7.2v-4.1
			c1.3-0.5,2.2-1.7,2.2-3.1c0-1.8-1.5-3.3-3.3-3.3c-1.8,0-3.3,1.5-3.3,3.3c0,1.4,0.9,2.7,2.2,3.1v4.1c0,5.2,4.2,9.4,9.4,9.4
			s9.4-4.2,9.4-9.4v-4.1c1.3-0.5,2.2-1.7,2.2-3.1C61.6,43.2,60.1,41.7,58.3,41.7z M41.7,43.9c0.6,0,1.1,0.5,1.1,1.1
			c0,0.2-0.1,0.4-0.2,0.6c-0.2-0.3-0.5-0.6-1-0.6c-0.4,0-0.8,0.2-1,0.6c-0.1-0.2-0.2-0.4-0.2-0.6C40.6,44.4,41.1,43.9,41.7,43.9z
			 M59.3,45.6c-0.2-0.3-0.5-0.6-1-0.6h-0.1c-0.4,0-0.7,0.2-0.9,0.5c-0.1-0.1-0.1-0.3-0.1-0.5c0-0.6,0.5-1.1,1.1-1.1s1.1,0.5,1.1,1.1
			C59.4,45.2,59.4,45.4,59.3,45.6z"/>
	</g>
</g>
</svg>
