<?xml version="1.0" encoding="utf-8"?>
<!-- Generator: Adobe Illustrator 25.2.1, SVG Export Plug-In . SVG Version: 6.00 Build 0)  -->
<svg version="1.1" id="Capa_1" xmlns="http://www.w3.org/2000/svg" xmlns:xlink="http://www.w3.org/1999/xlink" x="0px" y="0px"
	 viewBox="0 0 36 36" style="enable-background:new 0 0 36 36;" xml:space="preserve">
<style type="text/css">
	.st0{fill:#6542BE;}
	.st1{fill-rule:evenodd;clip-rule:evenodd;fill:#6542BE;}
</style>
<path class="st0" d="M24.6,12.3l-8.1,8.1L13,16.9l-2.2,2.2l4.6,4.6c0.6,0.6,1.6,0.6,2.2,0l9.2-9.2L24.6,12.3z"/>
<path class="st1" d="M18,2.7C9.5,2.7,2.7,9.5,2.7,18c0,8.5,6.9,15.3,15.3,15.3c8.5,0,15.3-6.9,15.3-15.3C33.3,9.5,26.5,2.7,18,2.7z
	 M5.7,18c0-6.8,5.5-12.3,12.3-12.3c6.8,0,12.3,5.5,12.3,12.3c0,6.8-5.5,12.3-12.3,12.3C11.2,30.3,5.7,24.8,5.7,18z"/>
</svg>
