<?xml version="1.0" encoding="utf-8"?>
<!-- Generator: Adobe Illustrator 25.2.1, SVG Export Plug-In . SVG Version: 6.00 Build 0)  -->
<svg version="1.1" id="Capa_1" xmlns="http://www.w3.org/2000/svg" xmlns:xlink="http://www.w3.org/1999/xlink" x="0px" y="0px"
	 viewBox="0 0 693 400" style="enable-background:new 0 0 693 400;" xml:space="preserve">
<style type="text/css">
	.st0{fill:#AA8FFF;}
	.st1{fill:none;stroke:#AA8FFF;stroke-width:2.5864;stroke-linecap:round;stroke-miterlimit:10;}
	.st2{fill:#6542BE;}
	.st3{clip-path:url(#SVGID_2_);}
	.st4{fill:#1A0826;}
	.st5{fill:none;stroke:#1A0826;stroke-width:0.8299;stroke-linecap:round;stroke-linejoin:round;stroke-miterlimit:10;}
	.st6{fill:#FD3C0B;}
	.st7{fill:#FFB89F;}
	.st8{fill:#1A0826;stroke:#1A0826;stroke-width:1.8471;stroke-miterlimit:10;}
	.st9{fill:none;stroke:#1A0826;stroke-width:2.4076;stroke-linecap:round;stroke-miterlimit:10;}
	.st10{opacity:0.5;fill:#EF9A95;enable-background:new    ;}
	.st11{fill:#F9AD95;}
	.st12{fill:#FFFFFF;stroke:#1A0826;stroke-width:3.2889;stroke-miterlimit:10;}
	.st13{fill:#FFFFFA;}
	.st14{fill-rule:evenodd;clip-rule:evenodd;fill:#FFFFFA;}
	.st15{fill:none;stroke:#1A0826;stroke-width:2.1777;stroke-linecap:round;stroke-linejoin:round;stroke-miterlimit:10;}
	.st16{fill:none;stroke:#AA8FFF;stroke-width:1.6333;stroke-linecap:round;stroke-linejoin:round;stroke-miterlimit:10;}
	.st17{fill:none;stroke:#F7A99A;stroke-width:0.6696;stroke-linecap:round;stroke-linejoin:round;stroke-miterlimit:10;}
	.st18{fill:none;stroke:#424876;stroke-width:1.6598;stroke-linecap:round;stroke-linejoin:round;stroke-miterlimit:10;}
	.st19{fill:none;stroke:#6542BE;stroke-width:2.0954;stroke-linecap:round;stroke-linejoin:round;stroke-miterlimit:10;}
	.st20{fill:none;stroke:#F7A99A;stroke-width:0.8299;stroke-linecap:round;stroke-linejoin:round;stroke-miterlimit:10;}
	.st21{fill:#F2F2F2;}
</style>
<path class="st0" d="M606.8,9.6c-4.4-1.3-9-2-13.7-2.1c-9.7-0.3-19.2,1.9-27.7,6.3c-7.5,3.9-9.3,14-3.6,20.2
	c3.8,4.1,9.8,5.3,14.8,2.7c4.8-2.5,10.1-3.7,15.6-3.5c8.6,0.3,16.5,4,22.3,10.4s8.9,14.8,8.5,23.6c-0.2,5.6-1.8,11-4.5,15.7
	c-2.9,4.9-2.2,11.1,1.6,15.3c5.7,6.2,15.6,5.1,19.9-2.3c4.9-8.4,7.7-17.9,8-27.9c0.6-15.6-4.8-30.5-15.2-41.9
	C625.7,18,616.7,12.5,606.8,9.6z"/>
<path class="st0" d="M81.1,256.3L59.8,250l17.9-41l16,4.7L81.1,256.3z"/>
<path class="st1" d="M2,86.7c0,0,64.1-17,38,30.1c-26.1,47-37.8,2-15.9-7.4c22-9.4,72.8-7.2,45.5,28.4s-36.2,8.9-24.6,2.3
	c11.6-6.6,57.9-23.7,47.2,19.3"/>
<path class="st0" d="M659.8,227.8L640.7,239l-17.6-41.1l14.4-8.4L659.8,227.8z"/>
<path class="st2" d="M131.2,44.4L112,55.5L94.6,14.3L109,6L131.2,44.4z"/>
<g>
	<g>
		<defs>
			<rect id="SVGID_1_" x="139.6" y="10" width="427.6" height="389.6"/>
		</defs>
		<clipPath id="SVGID_2_">
			<use xlink:href="#SVGID_1_"  style="overflow:visible;"/>
		</clipPath>
		<g class="st3">
			<path class="st4" d="M314.6,42.5c0,0-31.5-6.5-39.8,17.6c-4,11.4,5,26.1,7.7,34.2s-2.6,9.9-11.7,19.1s-8.2,23.5-2.3,31.7
				c5.9,8.2,7.5,17.1-2,26c-9.5,8.8-7,19.5-1.8,27.8s5.2,13.7-0.2,20.1c-5.3,6.4-15.5,16.4-12.7,31.7s-0.6,63.3,47.5,69
				c0,0,23.5-19.5,37.6-29.5c23.9-16.9,85.1-46.4,85.1-46.4l115.4,66.4c0,0,23.5-51.6,15.7-72.3s-19.7-16.4-28-23
				c-8.3-6.7-1.4-21.8,1-29.1s2.9-22.1-13.1-25.7c-16-3.7-22.4-14.4-20.8-28.1c1.6-13.7,0.7-29.1-10.4-34.5s-20.9-1.9-29.4-5.3
				s-7.8-15.4-9.8-24.2c-3.7-16.4-15-29.3-30.7-29.9c-13.5-0.5-19.8,3.8-24.3-4.6c-4.5-8.3-15.6-20.2-30-22.9
				C343.9,8,329.7,15,324,22.5C318.3,30,314.6,42.5,314.6,42.5z"/>
			<path class="st5" d="M373.4,79.3c-2.1,3.2-4.2,11-2.3,16.5c1.9,5.5,7.2,8.2,7.2,8.2"/>
			<path class="st6" d="M423.6,146c6.3-5.1,4.8-14.8,4.4-18.2L423.6,146z"/>
			<path class="st7" d="M423.6,158.7c-11.1,24.9,15.4,76.2,15.4,76.2l-74.4,37.7l-2.1-84.9C362.4,187.8,431.9,139.9,423.6,158.7z"/>
			<path class="st7" d="M442.8,154.4c1.1,36.1-55.3,44.6-104.7,53.1c-34.3,5.8-45.8-46.4-46.9-82.6c-1.1-36.1,22.2-58.1,58.3-59.2
				C385.6,64.6,441.7,118.2,442.8,154.4z"/>
			<path class="st8" d="M317.1,126.8c0,1.4,1.2,2.6,2.7,2.5c1.4,0,2.6-1.2,2.5-2.7c0-1.4-1.2-2.6-2.7-2.5
				C318.2,124.2,317,125.4,317.1,126.8z"/>
			<path class="st7" d="M299.8,127.8l-15.5,19.6c-4.5,5.8-0.5,13.9,7.4,14.7l8.2,0.8L299.8,127.8z"/>
			<path class="st4" d="M317.9,108.2c4.3-2.2,8.6-2.3,11.9,1.6c1.3,1.5,3.4-0.7,2.2-2.2c-4.1-5-10.2-4.9-15.6-2.1
				C314.6,106.4,316.1,109.1,317.9,108.2z"/>
			<path class="st9" d="M318.1,175.2c6.7,3.9,17.2,1.1,16.8-9.9"/>
			<path class="st9" d="M330.6,164.4c0,0,4.4,2.2,8.7-1"/>
			<path class="st4" d="M305.9,77.7c0,0,26.4-6,45.8,8.2s-16.1,32.8,31.9,48c0,0,7.4-25,24.6-16.3c17.9,9,8.4,29.7-9.7,34.9
				l29.9,28.8l40.8,16.3L446,136.9l-40.6-56.8l-54.2-23L305.9,77.7z"/>
			<path class="st10" d="M355.3,143c0,5.3-4.1,9.6-9.2,9.6s-9.2-4.3-9.2-9.6s4.1-9.6,9.2-9.6C351.2,133.4,355.3,137.7,355.3,143z"/>
			<path class="st11" d="M258.3,230.1c-5.6-26.5-26-40.7-29.7-45l2.1,31.4L258.3,230.1z"/>
			<path class="st7" d="M275.7,283.9l48.9,14.6c0,0-25.7,19.2-39.2,38.2c-13.6,19-15.8,25.3-15.8,25.3s-27.9-11-45.1-20.9
				s-38-36.6-43.7-47.4l61.6-22L275.7,283.9z"/>
			<path class="st12" d="M234.4,285.5l-50.4,9.7c-7.9,1.5-15.5-3.6-17-11.5l-25.4-131.9c-1.5-7.9,3.6-15.5,11.5-17l50.4-9.7
				c7.9-1.5,15.5,3.6,17,11.5l25.4,131.9C247.4,276.4,242.3,284,234.4,285.5z"/>
			<path class="st4" d="M198.3,159.5l-28.6,5.5c-5.6,1.1-9.3,6.5-8.2,12.2l5.5,28.6c1.1,5.6,6.5,9.3,12.2,8.2l28.6-5.5
				c5.6-1.1,9.3-6.5,8.2-12.2l-5.5-28.6C209.4,162.1,203.9,158.4,198.3,159.5z"/>
			<path class="st0" d="M182.7,184.2l2.9,8.9l10.9-2.1l-2.9-8.9L182.7,184.2z"/>
			<path class="st13" d="M185.1,180.1c0.8,0.5,1.1,1.5,0.7,2.3c-0.5,0.7-1.5,0.9-2.3,0.4s-1.1-1.5-0.7-2.3
				C183.3,179.8,184.3,179.6,185.1,180.1z"/>
			<path class="st14" d="M206.7,183c-0.6-2-2.5-2.9-4.7-2.5l-7.2,1.4l2.9,8.9l3.3-0.6l-0.6-1.8l3.4-0.7
				C206.5,187.2,207.5,185.2,206.7,183z M203,185.2l-3.4,0.7l-0.7-2.1l3.4-0.7c0.8-0.1,1.3,0.2,1.5,0.8
				C203.9,184.3,203.9,185,203,185.2z"/>
			<path class="st13" d="M172.6,193l0.8,2.5l10.9-2.1l-0.9-2.8l-5.1,1l-0.1-0.4l4-4.2l-0.8-2.5l-10.9,2.1l0.9,2.9l5.1-1l0.1,0.4
				L172.6,193z"/>
			<path class="st15" d="M194.4,283.6l27-5.2"/>
			<path class="st16" d="M210.9,252.2c3.4-5.6,1.7-13-4-16.4c-5.6-3.4-13-1.7-16.4,4c-3.4,5.6-1.7,13,4,16.4
				C200.2,259.6,207.5,257.8,210.9,252.2z"/>
			<path class="st16" d="M195.8,247.6l4.1,4.9l5.1-13.6"/>
			<path class="st7" d="M214.6,223.4c1.7-6.5,9.2-8.7,16.8-6.6c7.6,2,25.7,8.6,32.8,18.7c7.1,10.1,11.9,37.1,15.3,46.6
				s8.6,17.6,8.6,17.6s-10,12.9-13.9,18.1s-18.9,3.6-25.7-2.6c-7-6.4-12-21.8-13.5-32c-1.8-12.7,7.7-32.5,7.7-32.5
				s-8.4-4.5-15.9-8.9C218.6,237.1,212.9,230,214.6,223.4z"/>
			<path class="st17" d="M216.9,220c9.4,4.3,13.4,5,19.2,4.8s7.3-3,7.3-3"/>
			<path class="st17" d="M234.7,283.9c1.3,7.7,7.9,26.9,28.7,38.2"/>
			<path class="st18" d="M468.4,229.2c-10.3,2.6-52.2,18.4-74.4,28.6c-22.2,10.3-59.3,31.9-78.4,47.7
				c-20.2,16.8-29.1,27.9-42.2,49.3c-12.8,20.9-18.5,43.9-18.5,43.9"/>
			<path class="st4" d="M444.4,178.3l-45.9-25.7c0,0,25,28.5,6.9,43.4c-10.7,8.8-12.8,27.7-4.2,44.5c12.9,25.3-18,42.4-26.9,49.7
				c-0.8,0.7-1.8,1.6-2.8,2.8c-25.3,29-3.4,74.2,35.1,72.9l122.9-4.3c3.9-0.1,6.3-4.4,4.3-7.8c-5.1-8.6-9.1-23,10-34
				c30.1-17.4,30.9-68.2,4.8-92.4C533.6,213.4,460.5,221.4,444.4,178.3z"/>
			<path class="st19" d="M343.8,57.1c3.6-3.7,15.5-9.3,22.9-2.1"/>
			<path class="st19" d="M420.4,92.8c-4.1-4.3-25.1-5.1-29.9,6.8"/>
			<path class="st19" d="M455.5,146.1c12.7,7.2,3.1,21.8,7.4,28.9s9.3,8.5,9.3,8.5"/>
			<path class="st19" d="M486.2,284.6c5.3,7.3,9.5,18.6,3.8,27.3c-5.7,8.7-1.6,18.6-0.4,21"/>
			<path class="st19" d="M299.2,72.3c-4,2.3-7.5,14.1-3.5,22.9"/>
			<path class="st19" d="M456.8,211.6c1,4.8,20.3,5.7,24.8,16.3"/>
			<path class="st19" d="M519.2,226.2c7.3,5.5,16.6,19.9,10.7,31.8"/>
			<path class="st19" d="M293.7,240.4c-2.8,5.4-5.3,20.9,3.9,28.4"/>
			<path class="st19" d="M480.4,119.4c-0.5-8.3-9-15.1-19.4-14.5"/>
			<path class="st19" d="M442.8,264.2c0,0-1.2,15.5-14.5,25.9c-13.2,10.4-9.8,24.2-4.8,31.8"/>
			<path class="st20" d="M394.2,135.6c0,0-2.5-11.1,7.2-11.2c4.8-0.1,7.1,4.3,7.1,4.3"/>
			<path class="st21" d="M402.7,159.7c3.9,0,7.1-3.2,7.1-7.1s-3.2-7.1-7.1-7.1s-7.1,3.2-7.1,7.1S398.7,159.7,402.7,159.7z"/>
		</g>
	</g>
</g>
</svg>
